<svg version="1" xmlns="http://www.w3.org/2000/svg" width="1736" height="1736" viewBox="0 0 1302.000000 1302.000000"><path d="M619.8.4c-.1.2-5 .7-10.7 1.1-5.7.3-11.1.8-12 1-1 .2-4.2.6-7.2.9-3 .3-6.5.8-7.9 1-1.4.3-4.1.7-6 1-3.6.6-4.7.8-13.5 2.6-2.7.6-5.9 1.2-7 1.4-2.6.6-18.6 5-25.5 7.1-3 .9-6.1 2.2-6.9 2.9-.8.6-1.7 1-2 .9-1.1-.5-14.6 5.2-25.7 10.8-9.3 4.6-25.2 14.3-29.7 17.9-.7.5-4.6 3.6-8.7 6.9-8.2 6.5-19.6 17.4-25 24-1.9 2.4-4.7 5.7-6.2 7.4-1.5 1.8-2.8 3.5-2.8 3.9 0 .4-.6 1.3-1.2 2-2.5 2.6-7.8 10.6-7.8 11.7 0 .6-.4 1.1-.8 1.1s-1.5 1.5-2.3 3.2c-.9 1.8-3.2 6.4-5.1 10.3-9.7 19-17.3 41.7-20.4 61.2-.3 1.9-.8 4.5-1 5.7-.5 2.3-.7 4-2 15.6-1.1 9.6-1.1 52.7-.1 64.5 1.5 16.6 2.4 23.9 3.8 32 .5 3.3 1.2 7 1.4 8.2.2 1.3.6 2.6.8 3 .3.5.8 2.4 1.1 4.3 1.1 6.4 4.7 18.9 8.5 29.5 4.3 11.8 17.7 37.3 20.3 38.3.4.2.8.8.8 1.4 0 .5.6 1.5 1.3 2.2.6.8 1.9 2.4 2.7 3.6 5.6 8.5 29.7 32 32.8 32 .6 0 1.2.3 1.4.8.5 1.1 10.1 7.8 15.5 10.7 2.6 1.5 6.2 3.4 7.8 4.4 1.7 1 3.3 1.6 3.8 1.4.4-.2.7.1.7.6 0 .6.4 1.1 1 1.1.5 0 3.5 1.2 6.7 2.6 10.3 4.6 12.6 5.5 17.3 7 2.5.9 5.2 1.8 6 2.1 1.4.6 2.4.9 5.3 1.6.6.2 3.2.9 5.7 1.6 2.5.7 4.5 1.2 4.5 1 0-.1.9.3 2 .9 2.1 1 2.1 1.5 2 94.4v93.3l3.5 3.5c2 1.9 5.1 4.6 6.9 6 1.9 1.4 4.3 3.3 5.5 4.3 2.6 2.3 4.6 4 31.6 26.2 11.8 9.8 23.3 19.3 25.5 21.1 2.2 1.9 4.3 3.4 4.8 3.4.4 0 .7 9.1.7 20.2v20.1l-14.2 14.3-14.3 14.3-.1 36.4c-.1 40.9-.9 36.2 7.5 40.9 2 1.1 5.5 3.1 7.9 4.5l4.2 2.5-.2 31.1-.3 31.1-22 12.8c-12.1 7-23.6 13.5-25.5 14.5-4.7 2.3-5 2.9-4.9 9.4.1 3.1-.1 6.1-.5 6.7-.3.6-.2 1.3.3 1.6.5.3.6 2.1.2 3.8-.4 1.8-.4 4.5 0 6 .4 1.6.3 3-.1 3.3-.5.3-.5 1.8-.1 3.3.5 1.5.5 3.6.1 4.7s-.4 3.2 0 4.6c.4 1.5.4 3.2 0 3.9-.4.7-.4 2.5 0 4s.4 3.3 0 4.1c-.5.7-.7 1.6-.4 2 .2.4.6 2 .8 3.6.2 2.1 4.7 7.2 18.2 20.6l17.8 17.9.2 21.6c0 15.5-.3 22.3-1.1 23.7-.7 1.1-10.2 11-21.2 22l-20 20 .1 28 .1 28 53.8 53.8L654 1302h18c9.9 0 18-.3 18.1-.8 0-.4.3-1.6.5-2.7.3-1.1.6-3.1.9-4.5.2-1.4 1-5.7 1.8-9.6l1.5-7.1 19.6-19.9c10.8-10.9 25.6-26 32.9-33.4l13.2-13.5-.2-176.5c-.1-97.1-.2-176.7-.3-177-.1-.3-.1-1 0-1.5.6-2.4.4-20.5-.1-20.5-.4 0-.3-1.6.1-3.5.5-2.1.4-3.5-.2-3.5-.5 0-.6-.5-.2-1.2 1-1.6 1.1-15.8.1-15.8-.5 0-.5-.5-.1-1.1.9-1.5.9-22.7.1-23.6-.4-.3-.2-1.2.4-2 .8-.9.8-1.3.1-1.3-.6 0-.9-.7-.5-1.6.8-2.1 1-40.4.2-40.4-.4 0-.3-1.8.1-4s.4-4-.1-4-.6-.7-.2-1.5c.7-2.1 1-38.5.2-38.5-.3 0-.3-2 .1-4.5s.3-4.5-.2-4.5-.6-.5-.2-1.2c.9-1.4.8-10.3-.1-11.8-.3-.5-.3-1 .2-1 .4 0 .8-5.4.8-12s-.3-12-.6-12-.3-2.3.1-5c.4-2.8.3-5.3-.2-5.6-.5-.3-.6-1-.2-1.5.8-1.4.8-15-.1-17.2-.4-.9-.3-1.7.1-1.7.5 0 .8-3.9.7-8.7-.3-15.5-.3-16.7-.1-22.6.2-3.1 0-5.7-.4-5.7s-.3-1.2.1-2.8c.5-1.5.4-3.8-.1-5.2-.5-1.4-.5-2.6-.1-2.7.9-.3.8-12.5-.1-14.8-.3-.8-.2-1.5.2-1.5.6 0 .7-11.3.1-13-.1-.3-.1-.9.1-1.5.2-1.5.1-12.7-.3-15.5-.2-1.4-.1-2.9.1-3.3.8-1.6.7-11.7-.1-11.7-.5 0-.5-.5-.2-1 .4-.6.6-3.8.6-7.3-.1-3.4-.1-7.8-.1-9.7 0-1.9-.1-6.2-.1-9.5 0-6.8.1-8 .2-9.8.1-.6-.1-2.4-.4-3.9-.3-1.5-.2-3 .2-3.2.4-.3.6-2 .3-3.8-.2-1.8-.1-3 .3-2.6.5.4 1.4.3 2.2-.3.7-.6 1.3-.9 1.3-.6 0 .3 2.5-.3 5.5-1.3s5.5-1.6 5.5-1.3c0 .3.6.1 1.3-.4.6-.6 3.7-1.8 6.7-2.8 8.1-2.6 29-12 36.2-16.2 3.5-2.1 6.5-3.8 6.8-3.8.3 0 1.9-1 3.7-2.3 1.7-1.2 3.4-2.2 3.7-2.2.3 0 1.4-.7 2.4-1.5.9-.9 5-4.1 9.1-7.2 12.9-9.6 23.3-19.9 32.9-32.3 2.3-3 4.5-6 5-6.5 4.2-5.2 19.8-33.8 20.6-37.8.2-.7.9-2.6 1.5-4.2 1.9-4.4 6.2-17.6 6.7-20.4.3-1.3.9-3.1 1.3-4 .5-.9.9-1.9.9-2.4.1-.4.6-3.1 1.1-6 2.4-11.3 2.8-13.6 3.7-20.2.3-2.8.8-5.9 1-7 2.6-12.6 2.4-64.9-.1-78-.4-1.7-.8-4.6-1-6.5-.2-1.9-.4-3.5-.5-3.5-.1 0-1-3.8-2.1-8.5-8.9-40.1-27.3-73.5-56.4-102.6-11.3-11.3-35.2-30.4-38-30.4-.7 0-1.5-.4-1.7-.8-.7-1.9-24.6-14.4-37.4-19.6-12.9-5.3-37.6-13.1-47.5-15-1.3-.2-4.5-.9-7.2-1.5-2.6-.6-6.4-1.4-8.5-1.6-2-.3-4.8-.8-6.2-1-6-1.1-15.3-2.4-22-3.1-3-.2-7.3-.7-9.5-1-4.5-.5-61.1-1.4-61.7-1zm39.6 77c4.3.4 9.9 1.1 12.5 1.7 2.5.5 5.7 1.2 7.1 1.4 7.4 1.6 23.6 7.2 31.6 11.1 16.3 7.8 31.8 19.8 41.2 31.9 3.2 4.2 9.3 16.9 9.8 20.8 2.3 15.1-.8 26-10.6 37-14.2 15.8-39.6 27.4-72.8 33.2-7.7 1.3-15.8 1.8-32.7 1.8-17.2 0-22-.3-31-2-2.2-.4-4.4-.8-5-.9-4.7-.5-21.7-6.1-29.3-9.5-3.4-1.6-6.7-2.9-7.2-2.9-.6 0-1-.5-1-1 0-.6-.5-1-1.1-1-1.6 0-14.9-9.4-19.3-13.7-3.9-3.8-12.6-14.7-12.6-15.7 0-.4-.9-2.5-1.9-4.9-1.1-2.3-2.4-5.9-3-8-1.3-4.9-1.1-17.8.3-19.6.6-.8 1-1.7.9-2-1.3-3.7 6.7-17.2 15.2-25.6 12.4-12.5 36.1-24.6 55.8-28.6 2.9-.6 7.2-1.5 9.6-2 2.4-.5 8.2-1.2 13-1.5 4.7-.3 8.7-.7 8.8-.8.4-.3 14.4.2 21.7.8z"/></svg>